<mxfile host="app.diagrams.net" modified="2022-11-03T18:17:39.745Z" agent="5.0 (Windows NT 10.0; Win64; x64) AppleWebKit/537.36 (KHTML, like Gecko) Chrome/106.0.0.0 Safari/537.36" etag="_zQcmNRvX2f9eqowZPuf" version="20.5.1" type="github" pages="2">
  <diagram id="mZet7lCiRgz0-bBGaG8n" name="Modelo_Relac_Original">
    <mxGraphModel dx="1489" dy="794" grid="1" gridSize="10" guides="1" tooltips="1" connect="1" arrows="1" fold="1" page="1" pageScale="1" pageWidth="827" pageHeight="1169" math="0" shadow="0">
      <root>
        <mxCell id="0" />
        <mxCell id="1" parent="0" />
        <mxCell id="09AA15RH6Gi7OTGGMqDg-46" value="name.basics" style="shape=table;startSize=30;container=1;collapsible=1;childLayout=tableLayout;fixedRows=1;rowLines=0;fontStyle=1;align=center;resizeLast=1;" parent="1" vertex="1">
          <mxGeometry x="39" y="10" width="600" height="70" as="geometry" />
        </mxCell>
        <mxCell id="09AA15RH6Gi7OTGGMqDg-47" value="" style="shape=tableRow;horizontal=0;startSize=0;swimlaneHead=0;swimlaneBody=0;fillColor=none;collapsible=0;dropTarget=0;points=[[0,0.5],[1,0.5]];portConstraint=eastwest;top=0;left=0;right=0;bottom=0;" parent="09AA15RH6Gi7OTGGMqDg-46" vertex="1">
          <mxGeometry y="30" width="600" height="30" as="geometry" />
        </mxCell>
        <mxCell id="09AA15RH6Gi7OTGGMqDg-48" value="nconst :&#xa; string,person" style="shape=partialRectangle;connectable=0;fillColor=none;top=0;left=0;bottom=0;right=0;fontStyle=5;overflow=hidden;" parent="09AA15RH6Gi7OTGGMqDg-47" vertex="1">
          <mxGeometry width="110" height="30" as="geometry">
            <mxRectangle width="110" height="30" as="alternateBounds" />
          </mxGeometry>
        </mxCell>
        <mxCell id="09AA15RH6Gi7OTGGMqDg-49" value="primaryName:&#xa; string" style="shape=partialRectangle;connectable=0;fillColor=none;top=0;left=0;bottom=0;right=0;align=center;spacingLeft=6;fontStyle=0;overflow=hidden;" parent="09AA15RH6Gi7OTGGMqDg-47" vertex="1">
          <mxGeometry x="110" width="90" height="30" as="geometry">
            <mxRectangle width="90" height="30" as="alternateBounds" />
          </mxGeometry>
        </mxCell>
        <mxCell id="09AA15RH6Gi7OTGGMqDg-189" value="birthYears:&#xa; YYYY" style="shape=partialRectangle;connectable=0;fillColor=none;top=0;left=0;bottom=0;right=0;align=center;spacingLeft=6;fontStyle=0;overflow=hidden;" parent="09AA15RH6Gi7OTGGMqDg-47" vertex="1">
          <mxGeometry x="200" width="80" height="30" as="geometry">
            <mxRectangle width="80" height="30" as="alternateBounds" />
          </mxGeometry>
        </mxCell>
        <mxCell id="09AA15RH6Gi7OTGGMqDg-197" value="deathYear: &#xa;YYYY or \N" style="shape=partialRectangle;connectable=0;fillColor=none;top=0;left=0;bottom=0;right=0;align=center;spacingLeft=6;fontStyle=0;overflow=hidden;" parent="09AA15RH6Gi7OTGGMqDg-47" vertex="1">
          <mxGeometry x="280" width="80" height="30" as="geometry">
            <mxRectangle width="80" height="30" as="alternateBounds" />
          </mxGeometry>
        </mxCell>
        <mxCell id="09AA15RH6Gi7OTGGMqDg-205" value="primaryProfession: &#xa;array string, 3 elements" style="shape=partialRectangle;connectable=0;fillColor=none;top=0;left=0;bottom=0;right=0;align=center;spacingLeft=6;fontStyle=0;overflow=hidden;" parent="09AA15RH6Gi7OTGGMqDg-47" vertex="1">
          <mxGeometry x="360" width="140" height="30" as="geometry">
            <mxRectangle width="140" height="30" as="alternateBounds" />
          </mxGeometry>
        </mxCell>
        <mxCell id="09AA15RH6Gi7OTGGMqDg-226" value="knownForTitles:&#xa;array tconst" style="shape=partialRectangle;connectable=0;fillColor=none;top=0;left=0;bottom=0;right=0;align=center;spacingLeft=6;fontStyle=0;overflow=hidden;" parent="09AA15RH6Gi7OTGGMqDg-47" vertex="1">
          <mxGeometry x="500" width="100" height="30" as="geometry">
            <mxRectangle width="100" height="30" as="alternateBounds" />
          </mxGeometry>
        </mxCell>
        <mxCell id="09AA15RH6Gi7OTGGMqDg-227" value="title.akas" style="shape=table;startSize=30;container=1;collapsible=1;childLayout=tableLayout;fixedRows=1;rowLines=0;fontStyle=1;align=center;resizeLast=1;" parent="1" vertex="1">
          <mxGeometry x="38" y="780" width="841" height="70" as="geometry" />
        </mxCell>
        <mxCell id="09AA15RH6Gi7OTGGMqDg-228" value="" style="shape=tableRow;horizontal=0;startSize=0;swimlaneHead=0;swimlaneBody=0;fillColor=none;collapsible=0;dropTarget=0;points=[[0,0.5],[1,0.5]];portConstraint=eastwest;top=0;left=0;right=0;bottom=0;" parent="09AA15RH6Gi7OTGGMqDg-227" vertex="1">
          <mxGeometry y="30" width="841" height="30" as="geometry" />
        </mxCell>
        <mxCell id="09AA15RH6Gi7OTGGMqDg-229" value="titleID:&#xa;string tconst" style="shape=partialRectangle;connectable=0;fillColor=none;top=0;left=0;bottom=0;right=0;fontStyle=5;overflow=hidden;" parent="09AA15RH6Gi7OTGGMqDg-228" vertex="1">
          <mxGeometry width="88.00000000000023" height="30" as="geometry">
            <mxRectangle width="88.00000000000023" height="30" as="alternateBounds" />
          </mxGeometry>
        </mxCell>
        <mxCell id="09AA15RH6Gi7OTGGMqDg-230" value="ordering:&#xa;integer /index" style="shape=partialRectangle;connectable=0;fillColor=none;top=0;left=0;bottom=0;right=0;align=center;spacingLeft=6;fontStyle=0;overflow=hidden;" parent="09AA15RH6Gi7OTGGMqDg-228" vertex="1">
          <mxGeometry x="88.00000000000023" width="100" height="30" as="geometry">
            <mxRectangle width="100" height="30" as="alternateBounds" />
          </mxGeometry>
        </mxCell>
        <mxCell id="09AA15RH6Gi7OTGGMqDg-231" value="title:&#xa;string" style="shape=partialRectangle;connectable=0;fillColor=none;top=0;left=0;bottom=0;right=0;align=center;spacingLeft=6;fontStyle=0;overflow=hidden;" parent="09AA15RH6Gi7OTGGMqDg-228" vertex="1">
          <mxGeometry x="188.00000000000023" width="60" height="30" as="geometry">
            <mxRectangle width="60" height="30" as="alternateBounds" />
          </mxGeometry>
        </mxCell>
        <mxCell id="09AA15RH6Gi7OTGGMqDg-232" value="region:&#xa;string" style="shape=partialRectangle;connectable=0;fillColor=none;top=0;left=0;bottom=0;right=0;align=center;spacingLeft=6;fontStyle=0;overflow=hidden;" parent="09AA15RH6Gi7OTGGMqDg-228" vertex="1">
          <mxGeometry x="248.00000000000023" width="80" height="30" as="geometry">
            <mxRectangle width="80" height="30" as="alternateBounds" />
          </mxGeometry>
        </mxCell>
        <mxCell id="09AA15RH6Gi7OTGGMqDg-233" value="language:&#xa;string" style="shape=partialRectangle;connectable=0;fillColor=none;top=0;left=0;bottom=0;right=0;align=center;spacingLeft=6;fontStyle=0;overflow=hidden;" parent="09AA15RH6Gi7OTGGMqDg-228" vertex="1">
          <mxGeometry x="328.0000000000002" width="90" height="30" as="geometry">
            <mxRectangle width="90" height="30" as="alternateBounds" />
          </mxGeometry>
        </mxCell>
        <mxCell id="09AA15RH6Gi7OTGGMqDg-234" value="types:&#xa;array set attributes, video, dvd, tv..." style="shape=partialRectangle;connectable=0;fillColor=none;top=0;left=0;bottom=0;right=0;align=center;spacingLeft=6;fontStyle=0;overflow=hidden;" parent="09AA15RH6Gi7OTGGMqDg-228" vertex="1">
          <mxGeometry x="418.0000000000002" width="212.99999999999977" height="30" as="geometry">
            <mxRectangle width="212.99999999999977" height="30" as="alternateBounds" />
          </mxGeometry>
        </mxCell>
        <mxCell id="09AA15RH6Gi7OTGGMqDg-235" value="attributes:&#xa;array add terms" style="shape=partialRectangle;connectable=0;fillColor=none;top=0;left=0;bottom=0;right=0;align=center;spacingLeft=6;fontStyle=0;overflow=hidden;" parent="09AA15RH6Gi7OTGGMqDg-228" vertex="1">
          <mxGeometry x="631" width="110" height="30" as="geometry">
            <mxRectangle width="110" height="30" as="alternateBounds" />
          </mxGeometry>
        </mxCell>
        <mxCell id="09AA15RH6Gi7OTGGMqDg-236" value="isOriginalTitle:&#xa;boolean " style="shape=partialRectangle;connectable=0;fillColor=none;top=0;left=0;bottom=0;right=0;align=center;spacingLeft=6;fontStyle=0;overflow=hidden;" parent="09AA15RH6Gi7OTGGMqDg-228" vertex="1">
          <mxGeometry x="741" width="100" height="30" as="geometry">
            <mxRectangle width="100" height="30" as="alternateBounds" />
          </mxGeometry>
        </mxCell>
        <mxCell id="09AA15RH6Gi7OTGGMqDg-247" value="title.basics" style="shape=table;startSize=30;container=1;collapsible=1;childLayout=tableLayout;fixedRows=1;rowLines=0;fontStyle=1;align=center;resizeLast=1;" parent="1" vertex="1">
          <mxGeometry x="38" y="160" width="801.0000000000002" height="70" as="geometry" />
        </mxCell>
        <mxCell id="09AA15RH6Gi7OTGGMqDg-248" value="" style="shape=tableRow;horizontal=0;startSize=0;swimlaneHead=0;swimlaneBody=0;fillColor=none;collapsible=0;dropTarget=0;points=[[0,0.5],[1,0.5]];portConstraint=eastwest;top=0;left=0;right=0;bottom=0;" parent="09AA15RH6Gi7OTGGMqDg-247" vertex="1">
          <mxGeometry y="30" width="801.0000000000002" height="30" as="geometry" />
        </mxCell>
        <mxCell id="09AA15RH6Gi7OTGGMqDg-249" value="tconst:&#xa;string" style="shape=partialRectangle;connectable=0;fillColor=none;top=0;left=0;bottom=0;right=0;fontStyle=5;overflow=hidden;" parent="09AA15RH6Gi7OTGGMqDg-248" vertex="1">
          <mxGeometry width="88.00000000000023" height="30" as="geometry">
            <mxRectangle width="88.00000000000023" height="30" as="alternateBounds" />
          </mxGeometry>
        </mxCell>
        <mxCell id="09AA15RH6Gi7OTGGMqDg-250" value="titleType:&#xa;string, movie, series..." style="shape=partialRectangle;connectable=0;fillColor=none;top=0;left=0;bottom=0;right=0;align=center;spacingLeft=6;fontStyle=0;overflow=hidden;" parent="09AA15RH6Gi7OTGGMqDg-248" vertex="1">
          <mxGeometry x="88.00000000000023" width="132.99999999999977" height="30" as="geometry">
            <mxRectangle width="132.99999999999977" height="30" as="alternateBounds" />
          </mxGeometry>
        </mxCell>
        <mxCell id="09AA15RH6Gi7OTGGMqDg-251" value="primaryTitle:&#xa;string, popular" style="shape=partialRectangle;connectable=0;fillColor=none;top=0;left=0;bottom=0;right=0;align=center;spacingLeft=6;fontStyle=0;overflow=hidden;" parent="09AA15RH6Gi7OTGGMqDg-248" vertex="1">
          <mxGeometry x="221" width="90" height="30" as="geometry">
            <mxRectangle width="90" height="30" as="alternateBounds" />
          </mxGeometry>
        </mxCell>
        <mxCell id="09AA15RH6Gi7OTGGMqDg-252" value="originalTitle:&#xa;string" style="shape=partialRectangle;connectable=0;fillColor=none;top=0;left=0;bottom=0;right=0;align=center;spacingLeft=6;fontStyle=0;overflow=hidden;" parent="09AA15RH6Gi7OTGGMqDg-248" vertex="1">
          <mxGeometry x="311" width="80.00000000000023" height="30" as="geometry">
            <mxRectangle width="80.00000000000023" height="30" as="alternateBounds" />
          </mxGeometry>
        </mxCell>
        <mxCell id="09AA15RH6Gi7OTGGMqDg-253" value="isAdult:&#xa;boolean" style="shape=partialRectangle;connectable=0;fillColor=none;top=0;left=0;bottom=0;right=0;align=center;spacingLeft=6;fontStyle=0;overflow=hidden;" parent="09AA15RH6Gi7OTGGMqDg-248" vertex="1">
          <mxGeometry x="391.0000000000002" width="70" height="30" as="geometry">
            <mxRectangle width="70" height="30" as="alternateBounds" />
          </mxGeometry>
        </mxCell>
        <mxCell id="09AA15RH6Gi7OTGGMqDg-254" value="startYear:&#xa;YYYY" style="shape=partialRectangle;connectable=0;fillColor=none;top=0;left=0;bottom=0;right=0;align=center;spacingLeft=6;fontStyle=0;overflow=hidden;" parent="09AA15RH6Gi7OTGGMqDg-248" vertex="1">
          <mxGeometry x="461.0000000000002" width="60" height="30" as="geometry">
            <mxRectangle width="60" height="30" as="alternateBounds" />
          </mxGeometry>
        </mxCell>
        <mxCell id="09AA15RH6Gi7OTGGMqDg-255" value="endYear:&#xa;YYYY or \N" style="shape=partialRectangle;connectable=0;fillColor=none;top=0;left=0;bottom=0;right=0;align=center;spacingLeft=6;fontStyle=0;overflow=hidden;" parent="09AA15RH6Gi7OTGGMqDg-248" vertex="1">
          <mxGeometry x="521.0000000000002" width="80" height="30" as="geometry">
            <mxRectangle width="80" height="30" as="alternateBounds" />
          </mxGeometry>
        </mxCell>
        <mxCell id="09AA15RH6Gi7OTGGMqDg-256" value="runtimeMinutes:&#xa;minutes" style="shape=partialRectangle;connectable=0;fillColor=none;top=0;left=0;bottom=0;right=0;align=center;spacingLeft=6;fontStyle=0;overflow=hidden;" parent="09AA15RH6Gi7OTGGMqDg-248" vertex="1">
          <mxGeometry x="601.0000000000002" width="100" height="30" as="geometry">
            <mxRectangle width="100" height="30" as="alternateBounds" />
          </mxGeometry>
        </mxCell>
        <mxCell id="09AA15RH6Gi7OTGGMqDg-267" value="genres:&#xa;string array" style="shape=partialRectangle;connectable=0;fillColor=none;top=0;left=0;bottom=0;right=0;align=center;spacingLeft=6;fontStyle=0;overflow=hidden;" parent="09AA15RH6Gi7OTGGMqDg-248" vertex="1">
          <mxGeometry x="701.0000000000002" width="100" height="30" as="geometry">
            <mxRectangle width="100" height="30" as="alternateBounds" />
          </mxGeometry>
        </mxCell>
        <mxCell id="09AA15RH6Gi7OTGGMqDg-257" value="title.crew" style="shape=table;startSize=30;container=1;collapsible=1;childLayout=tableLayout;fixedRows=1;rowLines=0;fontStyle=1;align=center;resizeLast=1;" parent="1" vertex="1">
          <mxGeometry x="38" y="280" width="320" height="70" as="geometry" />
        </mxCell>
        <mxCell id="09AA15RH6Gi7OTGGMqDg-258" value="" style="shape=tableRow;horizontal=0;startSize=0;swimlaneHead=0;swimlaneBody=0;fillColor=none;collapsible=0;dropTarget=0;points=[[0,0.5],[1,0.5]];portConstraint=eastwest;top=0;left=0;right=0;bottom=0;" parent="09AA15RH6Gi7OTGGMqDg-257" vertex="1">
          <mxGeometry y="30" width="320" height="30" as="geometry" />
        </mxCell>
        <mxCell id="09AA15RH6Gi7OTGGMqDg-259" value="tconst:&#xa;string" style="shape=partialRectangle;connectable=0;fillColor=none;top=0;left=0;bottom=0;right=0;fontStyle=5;overflow=hidden;" parent="09AA15RH6Gi7OTGGMqDg-258" vertex="1">
          <mxGeometry width="88.00000000000023" height="30" as="geometry">
            <mxRectangle width="88.00000000000023" height="30" as="alternateBounds" />
          </mxGeometry>
        </mxCell>
        <mxCell id="09AA15RH6Gi7OTGGMqDg-260" value="directors:&#xa;array nconst" style="shape=partialRectangle;connectable=0;fillColor=none;top=0;left=0;bottom=0;right=0;align=center;spacingLeft=6;fontStyle=0;overflow=hidden;" parent="09AA15RH6Gi7OTGGMqDg-258" vertex="1">
          <mxGeometry x="88.00000000000023" width="100" height="30" as="geometry">
            <mxRectangle width="100" height="30" as="alternateBounds" />
          </mxGeometry>
        </mxCell>
        <mxCell id="09AA15RH6Gi7OTGGMqDg-261" value="writers: &#xa;array nconst" style="shape=partialRectangle;connectable=0;fillColor=none;top=0;left=0;bottom=0;right=0;align=center;spacingLeft=6;fontStyle=0;overflow=hidden;" parent="09AA15RH6Gi7OTGGMqDg-258" vertex="1">
          <mxGeometry x="188.00000000000023" width="131.99999999999977" height="30" as="geometry">
            <mxRectangle width="131.99999999999977" height="30" as="alternateBounds" />
          </mxGeometry>
        </mxCell>
        <mxCell id="09AA15RH6Gi7OTGGMqDg-268" value="title.episode" style="shape=table;startSize=30;container=1;collapsible=1;childLayout=tableLayout;fixedRows=1;rowLines=0;fontStyle=1;align=center;resizeLast=1;" parent="1" vertex="1">
          <mxGeometry x="39" y="540" width="451.9999999999998" height="70" as="geometry" />
        </mxCell>
        <mxCell id="09AA15RH6Gi7OTGGMqDg-269" value="" style="shape=tableRow;horizontal=0;startSize=0;swimlaneHead=0;swimlaneBody=0;fillColor=none;collapsible=0;dropTarget=0;points=[[0,0.5],[1,0.5]];portConstraint=eastwest;top=0;left=0;right=0;bottom=0;" parent="09AA15RH6Gi7OTGGMqDg-268" vertex="1">
          <mxGeometry y="30" width="451.9999999999998" height="30" as="geometry" />
        </mxCell>
        <mxCell id="09AA15RH6Gi7OTGGMqDg-270" value="tconst:&#xa;string" style="shape=partialRectangle;connectable=0;fillColor=none;top=0;left=0;bottom=0;right=0;fontStyle=5;overflow=hidden;" parent="09AA15RH6Gi7OTGGMqDg-269" vertex="1">
          <mxGeometry width="88.00000000000023" height="30" as="geometry">
            <mxRectangle width="88.00000000000023" height="30" as="alternateBounds" />
          </mxGeometry>
        </mxCell>
        <mxCell id="09AA15RH6Gi7OTGGMqDg-271" value="parentTconst:&#xa;string" style="shape=partialRectangle;connectable=0;fillColor=none;top=0;left=0;bottom=0;right=0;align=center;spacingLeft=6;fontStyle=0;overflow=hidden;" parent="09AA15RH6Gi7OTGGMqDg-269" vertex="1">
          <mxGeometry x="88.00000000000023" width="100" height="30" as="geometry">
            <mxRectangle width="100" height="30" as="alternateBounds" />
          </mxGeometry>
        </mxCell>
        <mxCell id="09AA15RH6Gi7OTGGMqDg-272" value="seasonNumber:&#xa;integer" style="shape=partialRectangle;connectable=0;fillColor=none;top=0;left=0;bottom=0;right=0;align=center;spacingLeft=6;fontStyle=0;overflow=hidden;" parent="09AA15RH6Gi7OTGGMqDg-269" vertex="1">
          <mxGeometry x="188.00000000000023" width="131.99999999999977" height="30" as="geometry">
            <mxRectangle width="131.99999999999977" height="30" as="alternateBounds" />
          </mxGeometry>
        </mxCell>
        <mxCell id="09AA15RH6Gi7OTGGMqDg-275" value="episodeNumber:&#xa;integer" style="shape=partialRectangle;connectable=0;fillColor=none;top=0;left=0;bottom=0;right=0;align=center;spacingLeft=6;fontStyle=0;overflow=hidden;" parent="09AA15RH6Gi7OTGGMqDg-269" vertex="1">
          <mxGeometry x="320" width="131.99999999999977" height="30" as="geometry">
            <mxRectangle width="131.99999999999977" height="30" as="alternateBounds" />
          </mxGeometry>
        </mxCell>
        <mxCell id="09AA15RH6Gi7OTGGMqDg-276" value="title.principals" style="shape=table;startSize=30;container=1;collapsible=1;childLayout=tableLayout;fixedRows=1;rowLines=0;fontStyle=1;align=center;resizeLast=1;" parent="1" vertex="1">
          <mxGeometry x="38" y="660" width="715.9999999999993" height="70" as="geometry" />
        </mxCell>
        <mxCell id="09AA15RH6Gi7OTGGMqDg-277" value="" style="shape=tableRow;horizontal=0;startSize=0;swimlaneHead=0;swimlaneBody=0;fillColor=none;collapsible=0;dropTarget=0;points=[[0,0.5],[1,0.5]];portConstraint=eastwest;top=0;left=0;right=0;bottom=0;" parent="09AA15RH6Gi7OTGGMqDg-276" vertex="1">
          <mxGeometry y="30" width="715.9999999999993" height="30" as="geometry" />
        </mxCell>
        <mxCell id="09AA15RH6Gi7OTGGMqDg-278" value="tconst:&#xa;string" style="shape=partialRectangle;connectable=0;fillColor=none;top=0;left=0;bottom=0;right=0;fontStyle=5;overflow=hidden;" parent="09AA15RH6Gi7OTGGMqDg-277" vertex="1">
          <mxGeometry width="88.00000000000023" height="30" as="geometry">
            <mxRectangle width="88.00000000000023" height="30" as="alternateBounds" />
          </mxGeometry>
        </mxCell>
        <mxCell id="09AA15RH6Gi7OTGGMqDg-279" value="ordering:&#xa;integer" style="shape=partialRectangle;connectable=0;fillColor=none;top=0;left=0;bottom=0;right=0;align=center;spacingLeft=6;fontStyle=0;overflow=hidden;" parent="09AA15RH6Gi7OTGGMqDg-277" vertex="1">
          <mxGeometry x="88.00000000000023" width="100" height="30" as="geometry">
            <mxRectangle width="100" height="30" as="alternateBounds" />
          </mxGeometry>
        </mxCell>
        <mxCell id="09AA15RH6Gi7OTGGMqDg-280" value="nconst:&#xa;string" style="shape=partialRectangle;connectable=0;fillColor=none;top=0;left=0;bottom=0;right=0;align=center;spacingLeft=6;fontStyle=0;overflow=hidden;" parent="09AA15RH6Gi7OTGGMqDg-277" vertex="1">
          <mxGeometry x="188.00000000000023" width="131.99999999999977" height="30" as="geometry">
            <mxRectangle width="131.99999999999977" height="30" as="alternateBounds" />
          </mxGeometry>
        </mxCell>
        <mxCell id="09AA15RH6Gi7OTGGMqDg-281" value="category:&#xa;string" style="shape=partialRectangle;connectable=0;fillColor=none;top=0;left=0;bottom=0;right=0;align=center;spacingLeft=6;fontStyle=0;overflow=hidden;" parent="09AA15RH6Gi7OTGGMqDg-277" vertex="1">
          <mxGeometry x="320" width="131.99999999999977" height="30" as="geometry">
            <mxRectangle width="131.99999999999977" height="30" as="alternateBounds" />
          </mxGeometry>
        </mxCell>
        <mxCell id="09AA15RH6Gi7OTGGMqDg-289" value="job:&#xa;string or \N" style="shape=partialRectangle;connectable=0;fillColor=none;top=0;left=0;bottom=0;right=0;align=center;spacingLeft=6;fontStyle=0;overflow=hidden;" parent="09AA15RH6Gi7OTGGMqDg-277" vertex="1">
          <mxGeometry x="451.9999999999998" width="131.99999999999977" height="30" as="geometry">
            <mxRectangle width="131.99999999999977" height="30" as="alternateBounds" />
          </mxGeometry>
        </mxCell>
        <mxCell id="09AA15RH6Gi7OTGGMqDg-288" value="characters:&#xa;string or \N" style="shape=partialRectangle;connectable=0;fillColor=none;top=0;left=0;bottom=0;right=0;align=center;spacingLeft=6;fontStyle=0;overflow=hidden;" parent="09AA15RH6Gi7OTGGMqDg-277" vertex="1">
          <mxGeometry x="583.9999999999995" width="131.99999999999977" height="30" as="geometry">
            <mxRectangle width="131.99999999999977" height="30" as="alternateBounds" />
          </mxGeometry>
        </mxCell>
        <mxCell id="09AA15RH6Gi7OTGGMqDg-282" value="title.ratings" style="shape=table;startSize=30;container=1;collapsible=1;childLayout=tableLayout;fixedRows=1;rowLines=0;fontStyle=1;align=center;resizeLast=1;" parent="1" vertex="1">
          <mxGeometry x="38" y="423" width="320" height="70" as="geometry" />
        </mxCell>
        <mxCell id="09AA15RH6Gi7OTGGMqDg-283" value="" style="shape=tableRow;horizontal=0;startSize=0;swimlaneHead=0;swimlaneBody=0;fillColor=none;collapsible=0;dropTarget=0;points=[[0,0.5],[1,0.5]];portConstraint=eastwest;top=0;left=0;right=0;bottom=0;" parent="09AA15RH6Gi7OTGGMqDg-282" vertex="1">
          <mxGeometry y="30" width="320" height="30" as="geometry" />
        </mxCell>
        <mxCell id="09AA15RH6Gi7OTGGMqDg-284" value="tconst:&#xa;string" style="shape=partialRectangle;connectable=0;fillColor=none;top=0;left=0;bottom=0;right=0;fontStyle=5;overflow=hidden;" parent="09AA15RH6Gi7OTGGMqDg-283" vertex="1">
          <mxGeometry width="88.00000000000023" height="30" as="geometry">
            <mxRectangle width="88.00000000000023" height="30" as="alternateBounds" />
          </mxGeometry>
        </mxCell>
        <mxCell id="09AA15RH6Gi7OTGGMqDg-285" value="averageratings:&#xa;weighted avg user rate" style="shape=partialRectangle;connectable=0;fillColor=none;top=0;left=0;bottom=0;right=0;align=center;spacingLeft=6;fontStyle=0;overflow=hidden;" parent="09AA15RH6Gi7OTGGMqDg-283" vertex="1">
          <mxGeometry x="88.00000000000023" width="146.99999999999977" height="30" as="geometry">
            <mxRectangle width="146.99999999999977" height="30" as="alternateBounds" />
          </mxGeometry>
        </mxCell>
        <mxCell id="09AA15RH6Gi7OTGGMqDg-286" value="numVotes:&#xa;number&#xa;" style="shape=partialRectangle;connectable=0;fillColor=none;top=0;left=0;bottom=0;right=0;align=center;spacingLeft=6;fontStyle=0;overflow=hidden;" parent="09AA15RH6Gi7OTGGMqDg-283" vertex="1">
          <mxGeometry x="235" width="85" height="30" as="geometry">
            <mxRectangle width="85" height="30" as="alternateBounds" />
          </mxGeometry>
        </mxCell>
        <mxCell id="09AA15RH6Gi7OTGGMqDg-291" value="" style="edgeStyle=orthogonalEdgeStyle;elbow=vertical;endArrow=classic;html=1;rounded=0;" parent="1" edge="1">
          <mxGeometry width="50" height="50" relative="1" as="geometry">
            <mxPoint x="290" y="730" as="sourcePoint" />
            <mxPoint x="70" y="90" as="targetPoint" />
            <Array as="points">
              <mxPoint x="290" y="750" />
              <mxPoint x="10" y="750" />
              <mxPoint x="10" y="110" />
              <mxPoint x="70" y="110" />
              <mxPoint x="70" y="90" />
            </Array>
          </mxGeometry>
        </mxCell>
        <mxCell id="09AA15RH6Gi7OTGGMqDg-292" value="" style="edgeStyle=orthogonalEdgeStyle;elbow=vertical;endArrow=classic;html=1;rounded=0;" parent="1" edge="1">
          <mxGeometry width="50" height="50" relative="1" as="geometry">
            <mxPoint x="180" y="350" as="sourcePoint" />
            <mxPoint x="110" y="90" as="targetPoint" />
            <Array as="points">
              <mxPoint x="180" y="370" />
              <mxPoint x="30" y="370" />
              <mxPoint x="30" y="130" />
              <mxPoint x="110" y="130" />
            </Array>
          </mxGeometry>
        </mxCell>
        <mxCell id="09AA15RH6Gi7OTGGMqDg-293" value="" style="edgeStyle=orthogonalEdgeStyle;elbow=vertical;endArrow=classic;html=1;rounded=0;" parent="1" edge="1">
          <mxGeometry width="50" height="50" relative="1" as="geometry">
            <mxPoint x="290" y="350" as="sourcePoint" />
            <mxPoint x="90" y="90" as="targetPoint" />
            <Array as="points">
              <mxPoint x="290" y="390" />
              <mxPoint x="20" y="390" />
              <mxPoint x="20" y="120" />
              <mxPoint x="90" y="120" />
            </Array>
          </mxGeometry>
        </mxCell>
        <mxCell id="09AA15RH6Gi7OTGGMqDg-294" value="" style="edgeStyle=orthogonalEdgeStyle;elbow=vertical;endArrow=classic;html=1;rounded=0;" parent="1" edge="1">
          <mxGeometry width="50" height="50" relative="1" as="geometry">
            <mxPoint x="590" y="90" as="sourcePoint" />
            <mxPoint x="90" y="150" as="targetPoint" />
            <Array as="points">
              <mxPoint x="590" y="140" />
              <mxPoint x="90" y="140" />
            </Array>
          </mxGeometry>
        </mxCell>
        <mxCell id="09AA15RH6Gi7OTGGMqDg-296" value="" style="edgeStyle=segmentEdgeStyle;endArrow=classic;html=1;rounded=0;" parent="1" edge="1">
          <mxGeometry width="50" height="50" relative="1" as="geometry">
            <mxPoint x="50" y="279" as="sourcePoint" />
            <mxPoint x="50" y="240" as="targetPoint" />
            <Array as="points">
              <mxPoint x="50" y="279" />
            </Array>
          </mxGeometry>
        </mxCell>
        <mxCell id="09AA15RH6Gi7OTGGMqDg-297" value="" style="edgeStyle=orthogonalEdgeStyle;elbow=vertical;endArrow=classic;html=1;rounded=0;" parent="1" edge="1">
          <mxGeometry width="50" height="50" relative="1" as="geometry">
            <mxPoint x="70" y="420" as="sourcePoint" />
            <mxPoint x="60" y="240" as="targetPoint" />
            <Array as="points">
              <mxPoint x="70" y="400" />
              <mxPoint x="370" y="400" />
              <mxPoint x="370" y="270" />
              <mxPoint x="60" y="270" />
            </Array>
          </mxGeometry>
        </mxCell>
        <mxCell id="09AA15RH6Gi7OTGGMqDg-298" value="" style="edgeStyle=orthogonalEdgeStyle;elbow=vertical;endArrow=classic;html=1;rounded=0;" parent="1" edge="1">
          <mxGeometry width="50" height="50" relative="1" as="geometry">
            <mxPoint x="81" y="538" as="sourcePoint" />
            <mxPoint x="71" y="240" as="targetPoint" />
            <Array as="points">
              <mxPoint x="81" y="538" />
              <mxPoint x="81" y="520" />
              <mxPoint x="381" y="520" />
              <mxPoint x="381" y="260" />
              <mxPoint x="71" y="260" />
            </Array>
          </mxGeometry>
        </mxCell>
        <mxCell id="09AA15RH6Gi7OTGGMqDg-299" value="" style="edgeStyle=orthogonalEdgeStyle;elbow=vertical;endArrow=classic;html=1;rounded=0;exitX=0.081;exitY=0.002;exitDx=0;exitDy=0;exitPerimeter=0;" parent="1" source="09AA15RH6Gi7OTGGMqDg-276" edge="1">
          <mxGeometry width="50" height="50" relative="1" as="geometry">
            <mxPoint x="93" y="537" as="sourcePoint" />
            <mxPoint x="83" y="239" as="targetPoint" />
            <Array as="points">
              <mxPoint x="93" y="660" />
              <mxPoint x="93" y="640" />
              <mxPoint x="580" y="640" />
              <mxPoint x="580" y="250" />
              <mxPoint x="83" y="250" />
            </Array>
          </mxGeometry>
        </mxCell>
      </root>
    </mxGraphModel>
  </diagram>
  <diagram name="Cópia do Página-1" id="qQzKKyJzDy5HRaDM6iGx">
    <mxGraphModel dx="1489" dy="794" grid="1" gridSize="10" guides="1" tooltips="1" connect="1" arrows="1" fold="1" page="1" pageScale="1" pageWidth="827" pageHeight="1169" math="0" shadow="0">
      <root>
        <mxCell id="NKfn6siPgoNmEwogeZhx-0" />
        <mxCell id="NKfn6siPgoNmEwogeZhx-1" parent="NKfn6siPgoNmEwogeZhx-0" />
        <mxCell id="NKfn6siPgoNmEwogeZhx-2" value="name.basics" style="shape=table;startSize=30;container=1;collapsible=1;childLayout=tableLayout;fixedRows=1;rowLines=0;fontStyle=1;align=center;resizeLast=1;" vertex="1" parent="NKfn6siPgoNmEwogeZhx-1">
          <mxGeometry x="39" y="10" width="360" height="70" as="geometry" />
        </mxCell>
        <mxCell id="NKfn6siPgoNmEwogeZhx-3" value="" style="shape=tableRow;horizontal=0;startSize=0;swimlaneHead=0;swimlaneBody=0;fillColor=none;collapsible=0;dropTarget=0;points=[[0,0.5],[1,0.5]];portConstraint=eastwest;top=0;left=0;right=0;bottom=0;" vertex="1" parent="NKfn6siPgoNmEwogeZhx-2">
          <mxGeometry y="30" width="360" height="30" as="geometry" />
        </mxCell>
        <mxCell id="NKfn6siPgoNmEwogeZhx-4" value="nconst :&#xa; string,person" style="shape=partialRectangle;connectable=0;fillColor=none;top=0;left=0;bottom=0;right=0;fontStyle=5;overflow=hidden;" vertex="1" parent="NKfn6siPgoNmEwogeZhx-3">
          <mxGeometry width="110" height="30" as="geometry">
            <mxRectangle width="110" height="30" as="alternateBounds" />
          </mxGeometry>
        </mxCell>
        <mxCell id="NKfn6siPgoNmEwogeZhx-5" value="primaryName:&#xa; string" style="shape=partialRectangle;connectable=0;fillColor=none;top=0;left=0;bottom=0;right=0;align=center;spacingLeft=6;fontStyle=0;overflow=hidden;" vertex="1" parent="NKfn6siPgoNmEwogeZhx-3">
          <mxGeometry x="110" width="90" height="30" as="geometry">
            <mxRectangle width="90" height="30" as="alternateBounds" />
          </mxGeometry>
        </mxCell>
        <mxCell id="NKfn6siPgoNmEwogeZhx-6" value="birthYears:&#xa; YYYY" style="shape=partialRectangle;connectable=0;fillColor=none;top=0;left=0;bottom=0;right=0;align=center;spacingLeft=6;fontStyle=0;overflow=hidden;" vertex="1" parent="NKfn6siPgoNmEwogeZhx-3">
          <mxGeometry x="200" width="80" height="30" as="geometry">
            <mxRectangle width="80" height="30" as="alternateBounds" />
          </mxGeometry>
        </mxCell>
        <mxCell id="NKfn6siPgoNmEwogeZhx-7" value="deathYear: &#xa;YYYY or \N" style="shape=partialRectangle;connectable=0;fillColor=none;top=0;left=0;bottom=0;right=0;align=center;spacingLeft=6;fontStyle=0;overflow=hidden;" vertex="1" parent="NKfn6siPgoNmEwogeZhx-3">
          <mxGeometry x="280" width="80" height="30" as="geometry">
            <mxRectangle width="80" height="30" as="alternateBounds" />
          </mxGeometry>
        </mxCell>
        <mxCell id="NKfn6siPgoNmEwogeZhx-20" value="title.basics" style="shape=table;startSize=30;container=1;collapsible=1;childLayout=tableLayout;fixedRows=1;rowLines=0;fontStyle=1;align=center;resizeLast=1;" vertex="1" parent="NKfn6siPgoNmEwogeZhx-1">
          <mxGeometry x="38" y="160" width="701.0000000000002" height="70" as="geometry" />
        </mxCell>
        <mxCell id="NKfn6siPgoNmEwogeZhx-21" value="" style="shape=tableRow;horizontal=0;startSize=0;swimlaneHead=0;swimlaneBody=0;fillColor=none;collapsible=0;dropTarget=0;points=[[0,0.5],[1,0.5]];portConstraint=eastwest;top=0;left=0;right=0;bottom=0;" vertex="1" parent="NKfn6siPgoNmEwogeZhx-20">
          <mxGeometry y="30" width="701.0000000000002" height="30" as="geometry" />
        </mxCell>
        <mxCell id="NKfn6siPgoNmEwogeZhx-22" value="tconst:&#xa;string" style="shape=partialRectangle;connectable=0;fillColor=none;top=0;left=0;bottom=0;right=0;fontStyle=5;overflow=hidden;" vertex="1" parent="NKfn6siPgoNmEwogeZhx-21">
          <mxGeometry width="88.00000000000023" height="30" as="geometry">
            <mxRectangle width="88.00000000000023" height="30" as="alternateBounds" />
          </mxGeometry>
        </mxCell>
        <mxCell id="NKfn6siPgoNmEwogeZhx-23" value="titleType:&#xa;string, movie, series..." style="shape=partialRectangle;connectable=0;fillColor=none;top=0;left=0;bottom=0;right=0;align=center;spacingLeft=6;fontStyle=0;overflow=hidden;" vertex="1" parent="NKfn6siPgoNmEwogeZhx-21">
          <mxGeometry x="88.00000000000023" width="132.99999999999977" height="30" as="geometry">
            <mxRectangle width="132.99999999999977" height="30" as="alternateBounds" />
          </mxGeometry>
        </mxCell>
        <mxCell id="NKfn6siPgoNmEwogeZhx-24" value="primaryTitle:&#xa;string, popular" style="shape=partialRectangle;connectable=0;fillColor=none;top=0;left=0;bottom=0;right=0;align=center;spacingLeft=6;fontStyle=0;overflow=hidden;" vertex="1" parent="NKfn6siPgoNmEwogeZhx-21">
          <mxGeometry x="221" width="90" height="30" as="geometry">
            <mxRectangle width="90" height="30" as="alternateBounds" />
          </mxGeometry>
        </mxCell>
        <mxCell id="NKfn6siPgoNmEwogeZhx-25" value="originalTitle:&#xa;string" style="shape=partialRectangle;connectable=0;fillColor=none;top=0;left=0;bottom=0;right=0;align=center;spacingLeft=6;fontStyle=0;overflow=hidden;" vertex="1" parent="NKfn6siPgoNmEwogeZhx-21">
          <mxGeometry x="311" width="80.00000000000023" height="30" as="geometry">
            <mxRectangle width="80.00000000000023" height="30" as="alternateBounds" />
          </mxGeometry>
        </mxCell>
        <mxCell id="NKfn6siPgoNmEwogeZhx-26" value="isAdult:&#xa;boolean" style="shape=partialRectangle;connectable=0;fillColor=none;top=0;left=0;bottom=0;right=0;align=center;spacingLeft=6;fontStyle=0;overflow=hidden;" vertex="1" parent="NKfn6siPgoNmEwogeZhx-21">
          <mxGeometry x="391.0000000000002" width="70" height="30" as="geometry">
            <mxRectangle width="70" height="30" as="alternateBounds" />
          </mxGeometry>
        </mxCell>
        <mxCell id="NKfn6siPgoNmEwogeZhx-27" value="startYear:&#xa;YYYY" style="shape=partialRectangle;connectable=0;fillColor=none;top=0;left=0;bottom=0;right=0;align=center;spacingLeft=6;fontStyle=0;overflow=hidden;" vertex="1" parent="NKfn6siPgoNmEwogeZhx-21">
          <mxGeometry x="461.0000000000002" width="60" height="30" as="geometry">
            <mxRectangle width="60" height="30" as="alternateBounds" />
          </mxGeometry>
        </mxCell>
        <mxCell id="NKfn6siPgoNmEwogeZhx-28" value="endYear:&#xa;YYYY or \N" style="shape=partialRectangle;connectable=0;fillColor=none;top=0;left=0;bottom=0;right=0;align=center;spacingLeft=6;fontStyle=0;overflow=hidden;" vertex="1" parent="NKfn6siPgoNmEwogeZhx-21">
          <mxGeometry x="521.0000000000002" width="80" height="30" as="geometry">
            <mxRectangle width="80" height="30" as="alternateBounds" />
          </mxGeometry>
        </mxCell>
        <mxCell id="NKfn6siPgoNmEwogeZhx-29" value="runtimeMinutes:&#xa;minutes" style="shape=partialRectangle;connectable=0;fillColor=none;top=0;left=0;bottom=0;right=0;align=center;spacingLeft=6;fontStyle=0;overflow=hidden;" vertex="1" parent="NKfn6siPgoNmEwogeZhx-21">
          <mxGeometry x="601.0000000000002" width="100" height="30" as="geometry">
            <mxRectangle width="100" height="30" as="alternateBounds" />
          </mxGeometry>
        </mxCell>
        <mxCell id="NKfn6siPgoNmEwogeZhx-31" value="title.crew" style="shape=table;startSize=30;container=1;collapsible=1;childLayout=tableLayout;fixedRows=1;rowLines=0;fontStyle=1;align=center;resizeLast=1;" vertex="1" parent="NKfn6siPgoNmEwogeZhx-1">
          <mxGeometry x="38" y="280" width="320" height="70" as="geometry" />
        </mxCell>
        <mxCell id="NKfn6siPgoNmEwogeZhx-32" value="" style="shape=tableRow;horizontal=0;startSize=0;swimlaneHead=0;swimlaneBody=0;fillColor=none;collapsible=0;dropTarget=0;points=[[0,0.5],[1,0.5]];portConstraint=eastwest;top=0;left=0;right=0;bottom=0;" vertex="1" parent="NKfn6siPgoNmEwogeZhx-31">
          <mxGeometry y="30" width="320" height="30" as="geometry" />
        </mxCell>
        <mxCell id="NKfn6siPgoNmEwogeZhx-33" value="tconst:&#xa;string" style="shape=partialRectangle;connectable=0;fillColor=none;top=0;left=0;bottom=0;right=0;fontStyle=5;overflow=hidden;" vertex="1" parent="NKfn6siPgoNmEwogeZhx-32">
          <mxGeometry width="88.00000000000023" height="30" as="geometry">
            <mxRectangle width="88.00000000000023" height="30" as="alternateBounds" />
          </mxGeometry>
        </mxCell>
        <mxCell id="NKfn6siPgoNmEwogeZhx-34" value="directors:&#xa;array nconst" style="shape=partialRectangle;connectable=0;fillColor=none;top=0;left=0;bottom=0;right=0;align=center;spacingLeft=6;fontStyle=0;overflow=hidden;" vertex="1" parent="NKfn6siPgoNmEwogeZhx-32">
          <mxGeometry x="88.00000000000023" width="100" height="30" as="geometry">
            <mxRectangle width="100" height="30" as="alternateBounds" />
          </mxGeometry>
        </mxCell>
        <mxCell id="NKfn6siPgoNmEwogeZhx-35" value="writers: &#xa;array nconst" style="shape=partialRectangle;connectable=0;fillColor=none;top=0;left=0;bottom=0;right=0;align=center;spacingLeft=6;fontStyle=0;overflow=hidden;" vertex="1" parent="NKfn6siPgoNmEwogeZhx-32">
          <mxGeometry x="188.00000000000023" width="131.99999999999977" height="30" as="geometry">
            <mxRectangle width="131.99999999999977" height="30" as="alternateBounds" />
          </mxGeometry>
        </mxCell>
        <mxCell id="NKfn6siPgoNmEwogeZhx-36" value="title.episode" style="shape=table;startSize=30;container=1;collapsible=1;childLayout=tableLayout;fixedRows=1;rowLines=0;fontStyle=1;align=center;resizeLast=1;" vertex="1" parent="NKfn6siPgoNmEwogeZhx-1">
          <mxGeometry x="39" y="540" width="451.9999999999998" height="70" as="geometry" />
        </mxCell>
        <mxCell id="NKfn6siPgoNmEwogeZhx-37" value="" style="shape=tableRow;horizontal=0;startSize=0;swimlaneHead=0;swimlaneBody=0;fillColor=none;collapsible=0;dropTarget=0;points=[[0,0.5],[1,0.5]];portConstraint=eastwest;top=0;left=0;right=0;bottom=0;" vertex="1" parent="NKfn6siPgoNmEwogeZhx-36">
          <mxGeometry y="30" width="451.9999999999998" height="30" as="geometry" />
        </mxCell>
        <mxCell id="NKfn6siPgoNmEwogeZhx-38" value="tconst:&#xa;string" style="shape=partialRectangle;connectable=0;fillColor=none;top=0;left=0;bottom=0;right=0;fontStyle=5;overflow=hidden;" vertex="1" parent="NKfn6siPgoNmEwogeZhx-37">
          <mxGeometry width="88.00000000000023" height="30" as="geometry">
            <mxRectangle width="88.00000000000023" height="30" as="alternateBounds" />
          </mxGeometry>
        </mxCell>
        <mxCell id="NKfn6siPgoNmEwogeZhx-39" value="parentTconst:&#xa;string" style="shape=partialRectangle;connectable=0;fillColor=none;top=0;left=0;bottom=0;right=0;align=center;spacingLeft=6;fontStyle=0;overflow=hidden;" vertex="1" parent="NKfn6siPgoNmEwogeZhx-37">
          <mxGeometry x="88.00000000000023" width="100" height="30" as="geometry">
            <mxRectangle width="100" height="30" as="alternateBounds" />
          </mxGeometry>
        </mxCell>
        <mxCell id="NKfn6siPgoNmEwogeZhx-40" value="seasonNumber:&#xa;integer" style="shape=partialRectangle;connectable=0;fillColor=none;top=0;left=0;bottom=0;right=0;align=center;spacingLeft=6;fontStyle=0;overflow=hidden;" vertex="1" parent="NKfn6siPgoNmEwogeZhx-37">
          <mxGeometry x="188.00000000000023" width="131.99999999999977" height="30" as="geometry">
            <mxRectangle width="131.99999999999977" height="30" as="alternateBounds" />
          </mxGeometry>
        </mxCell>
        <mxCell id="NKfn6siPgoNmEwogeZhx-41" value="episodeNumber:&#xa;integer" style="shape=partialRectangle;connectable=0;fillColor=none;top=0;left=0;bottom=0;right=0;align=center;spacingLeft=6;fontStyle=0;overflow=hidden;" vertex="1" parent="NKfn6siPgoNmEwogeZhx-37">
          <mxGeometry x="320" width="131.99999999999977" height="30" as="geometry">
            <mxRectangle width="131.99999999999977" height="30" as="alternateBounds" />
          </mxGeometry>
        </mxCell>
        <mxCell id="NKfn6siPgoNmEwogeZhx-42" value="title.principals" style="shape=table;startSize=30;container=1;collapsible=1;childLayout=tableLayout;fixedRows=1;rowLines=0;fontStyle=1;align=center;resizeLast=1;" vertex="1" parent="NKfn6siPgoNmEwogeZhx-1">
          <mxGeometry x="38" y="660" width="715.9999999999993" height="70" as="geometry" />
        </mxCell>
        <mxCell id="NKfn6siPgoNmEwogeZhx-43" value="" style="shape=tableRow;horizontal=0;startSize=0;swimlaneHead=0;swimlaneBody=0;fillColor=none;collapsible=0;dropTarget=0;points=[[0,0.5],[1,0.5]];portConstraint=eastwest;top=0;left=0;right=0;bottom=0;" vertex="1" parent="NKfn6siPgoNmEwogeZhx-42">
          <mxGeometry y="30" width="715.9999999999993" height="30" as="geometry" />
        </mxCell>
        <mxCell id="NKfn6siPgoNmEwogeZhx-44" value="tconst:&#xa;string" style="shape=partialRectangle;connectable=0;fillColor=none;top=0;left=0;bottom=0;right=0;fontStyle=5;overflow=hidden;" vertex="1" parent="NKfn6siPgoNmEwogeZhx-43">
          <mxGeometry width="88.00000000000023" height="30" as="geometry">
            <mxRectangle width="88.00000000000023" height="30" as="alternateBounds" />
          </mxGeometry>
        </mxCell>
        <mxCell id="NKfn6siPgoNmEwogeZhx-45" value="ordering:&#xa;integer" style="shape=partialRectangle;connectable=0;fillColor=none;top=0;left=0;bottom=0;right=0;align=center;spacingLeft=6;fontStyle=0;overflow=hidden;" vertex="1" parent="NKfn6siPgoNmEwogeZhx-43">
          <mxGeometry x="88.00000000000023" width="100" height="30" as="geometry">
            <mxRectangle width="100" height="30" as="alternateBounds" />
          </mxGeometry>
        </mxCell>
        <mxCell id="NKfn6siPgoNmEwogeZhx-46" value="nconst:&#xa;string" style="shape=partialRectangle;connectable=0;fillColor=none;top=0;left=0;bottom=0;right=0;align=center;spacingLeft=6;fontStyle=0;overflow=hidden;" vertex="1" parent="NKfn6siPgoNmEwogeZhx-43">
          <mxGeometry x="188.00000000000023" width="131.99999999999977" height="30" as="geometry">
            <mxRectangle width="131.99999999999977" height="30" as="alternateBounds" />
          </mxGeometry>
        </mxCell>
        <mxCell id="NKfn6siPgoNmEwogeZhx-47" value="category:&#xa;string" style="shape=partialRectangle;connectable=0;fillColor=none;top=0;left=0;bottom=0;right=0;align=center;spacingLeft=6;fontStyle=0;overflow=hidden;" vertex="1" parent="NKfn6siPgoNmEwogeZhx-43">
          <mxGeometry x="320" width="131.99999999999977" height="30" as="geometry">
            <mxRectangle width="131.99999999999977" height="30" as="alternateBounds" />
          </mxGeometry>
        </mxCell>
        <mxCell id="NKfn6siPgoNmEwogeZhx-48" value="job:&#xa;string or \N" style="shape=partialRectangle;connectable=0;fillColor=none;top=0;left=0;bottom=0;right=0;align=center;spacingLeft=6;fontStyle=0;overflow=hidden;" vertex="1" parent="NKfn6siPgoNmEwogeZhx-43">
          <mxGeometry x="451.9999999999998" width="131.99999999999977" height="30" as="geometry">
            <mxRectangle width="131.99999999999977" height="30" as="alternateBounds" />
          </mxGeometry>
        </mxCell>
        <mxCell id="NKfn6siPgoNmEwogeZhx-49" value="characters:&#xa;string or \N" style="shape=partialRectangle;connectable=0;fillColor=none;top=0;left=0;bottom=0;right=0;align=center;spacingLeft=6;fontStyle=0;overflow=hidden;" vertex="1" parent="NKfn6siPgoNmEwogeZhx-43">
          <mxGeometry x="583.9999999999995" width="131.99999999999977" height="30" as="geometry">
            <mxRectangle width="131.99999999999977" height="30" as="alternateBounds" />
          </mxGeometry>
        </mxCell>
        <mxCell id="NKfn6siPgoNmEwogeZhx-50" value="title.ratings" style="shape=table;startSize=30;container=1;collapsible=1;childLayout=tableLayout;fixedRows=1;rowLines=0;fontStyle=1;align=center;resizeLast=1;" vertex="1" parent="NKfn6siPgoNmEwogeZhx-1">
          <mxGeometry x="38" y="423" width="320" height="70" as="geometry" />
        </mxCell>
        <mxCell id="NKfn6siPgoNmEwogeZhx-51" value="" style="shape=tableRow;horizontal=0;startSize=0;swimlaneHead=0;swimlaneBody=0;fillColor=none;collapsible=0;dropTarget=0;points=[[0,0.5],[1,0.5]];portConstraint=eastwest;top=0;left=0;right=0;bottom=0;" vertex="1" parent="NKfn6siPgoNmEwogeZhx-50">
          <mxGeometry y="30" width="320" height="30" as="geometry" />
        </mxCell>
        <mxCell id="NKfn6siPgoNmEwogeZhx-52" value="tconst:&#xa;string" style="shape=partialRectangle;connectable=0;fillColor=none;top=0;left=0;bottom=0;right=0;fontStyle=5;overflow=hidden;" vertex="1" parent="NKfn6siPgoNmEwogeZhx-51">
          <mxGeometry width="88.00000000000023" height="30" as="geometry">
            <mxRectangle width="88.00000000000023" height="30" as="alternateBounds" />
          </mxGeometry>
        </mxCell>
        <mxCell id="NKfn6siPgoNmEwogeZhx-53" value="averageratings:&#xa;weighted avg user rate" style="shape=partialRectangle;connectable=0;fillColor=none;top=0;left=0;bottom=0;right=0;align=center;spacingLeft=6;fontStyle=0;overflow=hidden;" vertex="1" parent="NKfn6siPgoNmEwogeZhx-51">
          <mxGeometry x="88.00000000000023" width="146.99999999999977" height="30" as="geometry">
            <mxRectangle width="146.99999999999977" height="30" as="alternateBounds" />
          </mxGeometry>
        </mxCell>
        <mxCell id="NKfn6siPgoNmEwogeZhx-54" value="numVotes:&#xa;number&#xa;" style="shape=partialRectangle;connectable=0;fillColor=none;top=0;left=0;bottom=0;right=0;align=center;spacingLeft=6;fontStyle=0;overflow=hidden;" vertex="1" parent="NKfn6siPgoNmEwogeZhx-51">
          <mxGeometry x="235" width="85" height="30" as="geometry">
            <mxRectangle width="85" height="30" as="alternateBounds" />
          </mxGeometry>
        </mxCell>
        <mxCell id="NKfn6siPgoNmEwogeZhx-55" value="" style="edgeStyle=orthogonalEdgeStyle;elbow=vertical;endArrow=classic;html=1;rounded=0;" edge="1" parent="NKfn6siPgoNmEwogeZhx-1">
          <mxGeometry width="50" height="50" relative="1" as="geometry">
            <mxPoint x="290" y="730" as="sourcePoint" />
            <mxPoint x="70" y="90" as="targetPoint" />
            <Array as="points">
              <mxPoint x="290" y="750" />
              <mxPoint x="10" y="750" />
              <mxPoint x="10" y="110" />
              <mxPoint x="70" y="110" />
              <mxPoint x="70" y="90" />
            </Array>
          </mxGeometry>
        </mxCell>
        <mxCell id="NKfn6siPgoNmEwogeZhx-56" value="" style="edgeStyle=orthogonalEdgeStyle;elbow=vertical;endArrow=classic;html=1;rounded=0;" edge="1" parent="NKfn6siPgoNmEwogeZhx-1">
          <mxGeometry width="50" height="50" relative="1" as="geometry">
            <mxPoint x="180" y="350" as="sourcePoint" />
            <mxPoint x="110" y="90" as="targetPoint" />
            <Array as="points">
              <mxPoint x="180" y="370" />
              <mxPoint x="30" y="370" />
              <mxPoint x="30" y="130" />
              <mxPoint x="110" y="130" />
            </Array>
          </mxGeometry>
        </mxCell>
        <mxCell id="NKfn6siPgoNmEwogeZhx-57" value="" style="edgeStyle=orthogonalEdgeStyle;elbow=vertical;endArrow=classic;html=1;rounded=0;" edge="1" parent="NKfn6siPgoNmEwogeZhx-1">
          <mxGeometry width="50" height="50" relative="1" as="geometry">
            <mxPoint x="290" y="350" as="sourcePoint" />
            <mxPoint x="90" y="90" as="targetPoint" />
            <Array as="points">
              <mxPoint x="290" y="390" />
              <mxPoint x="20" y="390" />
              <mxPoint x="20" y="120" />
              <mxPoint x="90" y="120" />
            </Array>
          </mxGeometry>
        </mxCell>
        <mxCell id="NKfn6siPgoNmEwogeZhx-59" value="" style="edgeStyle=segmentEdgeStyle;endArrow=classic;html=1;rounded=0;" edge="1" parent="NKfn6siPgoNmEwogeZhx-1">
          <mxGeometry width="50" height="50" relative="1" as="geometry">
            <mxPoint x="50" y="279" as="sourcePoint" />
            <mxPoint x="50" y="240" as="targetPoint" />
            <Array as="points">
              <mxPoint x="50" y="279" />
            </Array>
          </mxGeometry>
        </mxCell>
        <mxCell id="NKfn6siPgoNmEwogeZhx-60" value="" style="edgeStyle=orthogonalEdgeStyle;elbow=vertical;endArrow=classic;html=1;rounded=0;" edge="1" parent="NKfn6siPgoNmEwogeZhx-1">
          <mxGeometry width="50" height="50" relative="1" as="geometry">
            <mxPoint x="70" y="420" as="sourcePoint" />
            <mxPoint x="60" y="240" as="targetPoint" />
            <Array as="points">
              <mxPoint x="70" y="400" />
              <mxPoint x="370" y="400" />
              <mxPoint x="370" y="270" />
              <mxPoint x="60" y="270" />
            </Array>
          </mxGeometry>
        </mxCell>
        <mxCell id="NKfn6siPgoNmEwogeZhx-61" value="" style="edgeStyle=orthogonalEdgeStyle;elbow=vertical;endArrow=classic;html=1;rounded=0;" edge="1" parent="NKfn6siPgoNmEwogeZhx-1">
          <mxGeometry width="50" height="50" relative="1" as="geometry">
            <mxPoint x="81" y="538" as="sourcePoint" />
            <mxPoint x="71" y="240" as="targetPoint" />
            <Array as="points">
              <mxPoint x="81" y="538" />
              <mxPoint x="81" y="520" />
              <mxPoint x="381" y="520" />
              <mxPoint x="381" y="260" />
              <mxPoint x="71" y="260" />
            </Array>
          </mxGeometry>
        </mxCell>
        <mxCell id="NKfn6siPgoNmEwogeZhx-62" value="" style="edgeStyle=orthogonalEdgeStyle;elbow=vertical;endArrow=classic;html=1;rounded=0;exitX=0.081;exitY=0.002;exitDx=0;exitDy=0;exitPerimeter=0;" edge="1" parent="NKfn6siPgoNmEwogeZhx-1" source="NKfn6siPgoNmEwogeZhx-42">
          <mxGeometry width="50" height="50" relative="1" as="geometry">
            <mxPoint x="93" y="537" as="sourcePoint" />
            <mxPoint x="83" y="239" as="targetPoint" />
            <Array as="points">
              <mxPoint x="93" y="660" />
              <mxPoint x="93" y="640" />
              <mxPoint x="580" y="640" />
              <mxPoint x="580" y="250" />
              <mxPoint x="83" y="250" />
            </Array>
          </mxGeometry>
        </mxCell>
        <mxCell id="cEEpter7Et3CfdUJMOpN-0" value="knownForTitles" style="shape=table;startSize=30;container=1;collapsible=1;childLayout=tableLayout;fixedRows=1;rowLines=0;fontStyle=1;align=center;resizeLast=1;fillColor=#d5e8d4;strokeColor=#82b366;" vertex="1" parent="NKfn6siPgoNmEwogeZhx-1">
          <mxGeometry x="470" y="84" width="610" height="70" as="geometry" />
        </mxCell>
        <mxCell id="cEEpter7Et3CfdUJMOpN-1" value="" style="shape=tableRow;horizontal=0;startSize=0;swimlaneHead=0;swimlaneBody=0;fillColor=none;collapsible=0;dropTarget=0;points=[[0,0.5],[1,0.5]];portConstraint=eastwest;top=0;left=0;right=0;bottom=0;" vertex="1" parent="cEEpter7Et3CfdUJMOpN-0">
          <mxGeometry y="30" width="610" height="30" as="geometry" />
        </mxCell>
        <mxCell id="cEEpter7Et3CfdUJMOpN-9" value="nconst" style="shape=partialRectangle;connectable=0;fillColor=none;top=0;left=0;bottom=0;right=0;fontStyle=5;overflow=hidden;" vertex="1" parent="cEEpter7Et3CfdUJMOpN-1">
          <mxGeometry width="110" height="30" as="geometry">
            <mxRectangle width="110" height="30" as="alternateBounds" />
          </mxGeometry>
        </mxCell>
        <mxCell id="cEEpter7Et3CfdUJMOpN-2" value="tconst1" style="shape=partialRectangle;connectable=0;fillColor=none;top=0;left=0;bottom=0;right=0;fontStyle=5;overflow=hidden;" vertex="1" parent="cEEpter7Et3CfdUJMOpN-1">
          <mxGeometry x="110" width="110" height="30" as="geometry">
            <mxRectangle width="110" height="30" as="alternateBounds" />
          </mxGeometry>
        </mxCell>
        <mxCell id="cEEpter7Et3CfdUJMOpN-3" value="tconst2" style="shape=partialRectangle;connectable=0;fillColor=none;top=0;left=0;bottom=0;right=0;align=center;spacingLeft=6;fontStyle=0;overflow=hidden;" vertex="1" parent="cEEpter7Et3CfdUJMOpN-1">
          <mxGeometry x="220" width="90" height="30" as="geometry">
            <mxRectangle width="90" height="30" as="alternateBounds" />
          </mxGeometry>
        </mxCell>
        <mxCell id="cEEpter7Et3CfdUJMOpN-4" value="tconst3" style="shape=partialRectangle;connectable=0;fillColor=none;top=0;left=0;bottom=0;right=0;align=center;spacingLeft=6;fontStyle=0;overflow=hidden;" vertex="1" parent="cEEpter7Et3CfdUJMOpN-1">
          <mxGeometry x="310" width="80" height="30" as="geometry">
            <mxRectangle width="80" height="30" as="alternateBounds" />
          </mxGeometry>
        </mxCell>
        <mxCell id="cEEpter7Et3CfdUJMOpN-5" value="tconst4" style="shape=partialRectangle;connectable=0;fillColor=none;top=0;left=0;bottom=0;right=0;align=center;spacingLeft=6;fontStyle=0;overflow=hidden;" vertex="1" parent="cEEpter7Et3CfdUJMOpN-1">
          <mxGeometry x="390" width="80" height="30" as="geometry">
            <mxRectangle width="80" height="30" as="alternateBounds" />
          </mxGeometry>
        </mxCell>
        <mxCell id="cEEpter7Et3CfdUJMOpN-6" value="tconstN" style="shape=partialRectangle;connectable=0;fillColor=none;top=0;left=0;bottom=0;right=0;align=center;spacingLeft=6;fontStyle=0;overflow=hidden;" vertex="1" parent="cEEpter7Et3CfdUJMOpN-1">
          <mxGeometry x="470" width="140" height="30" as="geometry">
            <mxRectangle width="140" height="30" as="alternateBounds" />
          </mxGeometry>
        </mxCell>
        <mxCell id="cEEpter7Et3CfdUJMOpN-10" value="primaryProfession" style="shape=table;startSize=30;container=1;collapsible=1;childLayout=tableLayout;fixedRows=1;rowLines=0;fontStyle=1;align=center;resizeLast=1;fillColor=#d5e8d4;strokeColor=#82b366;" vertex="1" parent="NKfn6siPgoNmEwogeZhx-1">
          <mxGeometry x="470" y="7" width="390" height="70" as="geometry" />
        </mxCell>
        <mxCell id="cEEpter7Et3CfdUJMOpN-11" value="" style="shape=tableRow;horizontal=0;startSize=0;swimlaneHead=0;swimlaneBody=0;fillColor=none;collapsible=0;dropTarget=0;points=[[0,0.5],[1,0.5]];portConstraint=eastwest;top=0;left=0;right=0;bottom=0;" vertex="1" parent="cEEpter7Et3CfdUJMOpN-10">
          <mxGeometry y="30" width="390" height="30" as="geometry" />
        </mxCell>
        <mxCell id="cEEpter7Et3CfdUJMOpN-12" value="nconst" style="shape=partialRectangle;connectable=0;fillColor=none;top=0;left=0;bottom=0;right=0;fontStyle=5;overflow=hidden;" vertex="1" parent="cEEpter7Et3CfdUJMOpN-11">
          <mxGeometry width="110" height="30" as="geometry">
            <mxRectangle width="110" height="30" as="alternateBounds" />
          </mxGeometry>
        </mxCell>
        <mxCell id="cEEpter7Et3CfdUJMOpN-13" value="profession1" style="shape=partialRectangle;connectable=0;fillColor=none;top=0;left=0;bottom=0;right=0;fontStyle=0;overflow=hidden;" vertex="1" parent="cEEpter7Et3CfdUJMOpN-11">
          <mxGeometry x="110" width="110" height="30" as="geometry">
            <mxRectangle width="110" height="30" as="alternateBounds" />
          </mxGeometry>
        </mxCell>
        <mxCell id="cEEpter7Et3CfdUJMOpN-14" value="profession2" style="shape=partialRectangle;connectable=0;fillColor=none;top=0;left=0;bottom=0;right=0;align=center;spacingLeft=6;fontStyle=0;overflow=hidden;" vertex="1" parent="cEEpter7Et3CfdUJMOpN-11">
          <mxGeometry x="220" width="90" height="30" as="geometry">
            <mxRectangle width="90" height="30" as="alternateBounds" />
          </mxGeometry>
        </mxCell>
        <mxCell id="cEEpter7Et3CfdUJMOpN-15" value="profession3" style="shape=partialRectangle;connectable=0;fillColor=none;top=0;left=0;bottom=0;right=0;align=center;spacingLeft=6;fontStyle=0;overflow=hidden;" vertex="1" parent="cEEpter7Et3CfdUJMOpN-11">
          <mxGeometry x="310" width="80" height="30" as="geometry">
            <mxRectangle width="80" height="30" as="alternateBounds" />
          </mxGeometry>
        </mxCell>
        <mxCell id="cEEpter7Et3CfdUJMOpN-18" value="genres" style="shape=table;startSize=30;container=1;collapsible=1;childLayout=tableLayout;fixedRows=1;rowLines=0;fontStyle=1;align=center;resizeLast=1;fillColor=#d5e8d4;strokeColor=#82b366;" vertex="1" parent="NKfn6siPgoNmEwogeZhx-1">
          <mxGeometry x="760" y="170" width="390" height="70" as="geometry" />
        </mxCell>
        <mxCell id="cEEpter7Et3CfdUJMOpN-19" value="" style="shape=tableRow;horizontal=0;startSize=0;swimlaneHead=0;swimlaneBody=0;fillColor=none;collapsible=0;dropTarget=0;points=[[0,0.5],[1,0.5]];portConstraint=eastwest;top=0;left=0;right=0;bottom=0;" vertex="1" parent="cEEpter7Et3CfdUJMOpN-18">
          <mxGeometry y="30" width="390" height="30" as="geometry" />
        </mxCell>
        <mxCell id="cEEpter7Et3CfdUJMOpN-20" value="tconst" style="shape=partialRectangle;connectable=0;fillColor=none;top=0;left=0;bottom=0;right=0;fontStyle=5;overflow=hidden;" vertex="1" parent="cEEpter7Et3CfdUJMOpN-19">
          <mxGeometry width="110" height="30" as="geometry">
            <mxRectangle width="110" height="30" as="alternateBounds" />
          </mxGeometry>
        </mxCell>
        <mxCell id="cEEpter7Et3CfdUJMOpN-21" value="genre1" style="shape=partialRectangle;connectable=0;fillColor=none;top=0;left=0;bottom=0;right=0;fontStyle=5;overflow=hidden;" vertex="1" parent="cEEpter7Et3CfdUJMOpN-19">
          <mxGeometry x="110" width="110" height="30" as="geometry">
            <mxRectangle width="110" height="30" as="alternateBounds" />
          </mxGeometry>
        </mxCell>
        <mxCell id="cEEpter7Et3CfdUJMOpN-22" value="genre2" style="shape=partialRectangle;connectable=0;fillColor=none;top=0;left=0;bottom=0;right=0;align=center;spacingLeft=6;fontStyle=0;overflow=hidden;" vertex="1" parent="cEEpter7Et3CfdUJMOpN-19">
          <mxGeometry x="220" width="90" height="30" as="geometry">
            <mxRectangle width="90" height="30" as="alternateBounds" />
          </mxGeometry>
        </mxCell>
        <mxCell id="cEEpter7Et3CfdUJMOpN-23" value="genreN" style="shape=partialRectangle;connectable=0;fillColor=none;top=0;left=0;bottom=0;right=0;align=center;spacingLeft=6;fontStyle=0;overflow=hidden;" vertex="1" parent="cEEpter7Et3CfdUJMOpN-19">
          <mxGeometry x="310" width="80" height="30" as="geometry">
            <mxRectangle width="80" height="30" as="alternateBounds" />
          </mxGeometry>
        </mxCell>
      </root>
    </mxGraphModel>
  </diagram>
</mxfile>
